<svg width="27" height="29" viewBox="0 0 27 29" fill="none" xmlns="http://www.w3.org/2000/svg">
<path d="M0 0H27V29H0V0Z" fill="#161D27"/>
<path d="M11.875 19.5618V19.3864C11.8873 18.2415 12.0012 17.3305 12.2166 16.6534C12.4382 15.9763 12.7521 15.4285 13.1584 15.0099C13.5646 14.5914 14.054 14.2098 14.6264 13.8651C14.9957 13.6312 15.3281 13.3696 15.6236 13.0803C15.919 12.791 16.1529 12.4586 16.3253 12.0831C16.4976 11.7076 16.5838 11.2921 16.5838 10.8366C16.5838 10.2888 16.4545 9.81487 16.196 9.41477C15.9375 9.01468 15.5928 8.70691 15.1619 8.49148C14.7372 8.26989 14.2633 8.15909 13.7401 8.15909C13.2661 8.15909 12.8137 8.25758 12.3828 8.45455C11.9519 8.65152 11.5949 8.95928 11.3118 9.37784C11.0286 9.79025 10.8655 10.3227 10.8224 10.9751H8.01562C8.05871 9.86719 8.33878 8.93158 8.85582 8.16832C9.37287 7.39891 10.0561 6.81723 10.9055 6.42329C11.7611 6.02936 12.706 5.83239 13.7401 5.83239C14.8726 5.83239 15.8636 6.04474 16.7131 6.46946C17.5625 6.88802 18.2211 7.47585 18.6889 8.23295C19.1629 8.9839 19.3999 9.86103 19.3999 10.8643C19.3999 11.5537 19.2921 12.1754 19.0767 12.7294C18.8613 13.2772 18.5535 13.7666 18.1534 14.1974C17.7595 14.6283 17.2855 15.0099 16.7315 15.3423C16.2083 15.6686 15.7836 16.0071 15.4574 16.358C15.1373 16.7088 14.9034 17.1243 14.7557 17.6044C14.608 18.0845 14.5279 18.6785 14.5156 19.3864V19.5618H11.875ZM13.2692 25.1754C12.7644 25.1754 12.3305 24.9969 11.9673 24.6399C11.6042 24.2768 11.4226 23.8397 11.4226 23.3288C11.4226 22.8241 11.6042 22.3932 11.9673 22.0362C12.3305 21.6731 12.7644 21.4915 13.2692 21.4915C13.7678 21.4915 14.1986 21.6731 14.5618 22.0362C14.9311 22.3932 15.1158 22.8241 15.1158 23.3288C15.1158 23.6674 15.0296 23.9782 14.8572 24.2614C14.6911 24.5384 14.4695 24.7599 14.1925 24.9261C13.9155 25.0923 13.6077 25.1754 13.2692 25.1754Z" fill="#44EB99"/>
<path d="M14 12C14 11.4477 14.4477 11 15 11H16C16.5523 11 17 11.4477 17 12V13C17 13.5523 16.5523 14 16 14H15C14.4477 14 14 13.5523 14 13V12Z" fill="#D9D9D9"/>
<path d="M17 7C17 6.44772 17.4477 6 18 6H20C20.5523 6 21 6.44772 21 7V9C21 9.55228 20.5523 10 20 10H18C17.4477 10 17 9.55228 17 9V7Z" fill="#D9D9D9"/>
</svg>
