<svg width="29" height="29" viewBox="0 0 29 29" fill="none" xmlns="http://www.w3.org/2000/svg">
<path d="M0.852966 0H29V29H0.852966V14.5V0Z" fill="#161D27"/>
<path d="M20.1612 11.3384C20.1612 15.7673 16.5603 19.3643 12.11 19.3643C7.65972 19.3643 4.05884 15.7673 4.05884 11.3384C4.05884 6.90957 7.65972 3.3125 12.11 3.3125C16.5603 3.3125 20.1612 6.90957 20.1612 11.3384Z" fill="#161D27" stroke="#44EB99" stroke-width="3"/>
<path d="M22.0397 22.1523C22.6761 22.6827 23.622 22.5967 24.1523 21.9603C24.6827 21.3239 24.5967 20.378 23.9603 19.8477L22.0397 22.1523ZM16.0397 17.1523L22.0397 22.1523L23.9603 19.8477L17.9603 14.8477L16.0397 17.1523Z" fill="#44EB99"/>
<path d="M0 9.15625C0 8.60397 0.447715 8.15625 1 8.15625H3.26471C3.81699 8.15625 4.26471 8.60397 4.26471 9.15625V11.6875C4.26471 12.2398 3.81699 12.6875 3.26471 12.6875H0.999999C0.447715 12.6875 0 12.2398 0 11.6875V9.15625Z" fill="#D9D9D9"/>
<path d="M5.97058 13.6875C5.97058 13.1352 6.4183 12.6875 6.97058 12.6875H8.38235C8.93463 12.6875 9.38235 13.1352 9.38235 13.6875V15.3125C9.38235 15.8648 8.93463 16.3125 8.38235 16.3125H6.97058C6.4183 16.3125 5.97058 15.8648 5.97058 15.3125V13.6875Z" fill="#D9D9D9"/>
</svg>
